<svg width="116" height="27" viewBox="0 0 116 27" fill="none" xmlns="http://www.w3.org/2000/svg">
<g filter="url(#filter0_d_101_1325)">
<path d="M9.568 1.968C8.56 2 7.784 2.384 7.24 3.12C6.712 3.856 6.448 5.128 6.448 6.936C6.448 7.528 6.504 7.944 6.616 8.184C6.728 8.408 6.784 8.536 6.784 8.568C5.92 8.568 5.272 8.392 4.84 8.04C4.424 7.672 4.216 7.072 4.216 6.24C4.216 5.104 4.496 4.072 5.056 3.144C5.616 2.2 6.504 1.44 7.72 0.863999C8.952 0.287999 10.512 -1.43051e-06 12.4 -1.43051e-06C12.784 -1.43051e-06 13.296 0.0399985 13.936 0.119998C15.088 0.231999 15.904 0.287999 16.384 0.287999C17.232 0.287999 17.952 0.191999 18.544 -1.43051e-06C18.496 0.143999 18.408 0.463999 18.28 0.959999C18.152 1.44 17.92 1.856 17.584 2.208C17.264 2.544 16.824 2.768 16.264 2.88C15.32 2.88 14.2 2.728 12.904 2.424L11.896 7.2H15.4L15.016 8.976H11.512L9.568 18H6.112L9.568 1.968ZM18.5196 18.096C17.3356 18.096 16.3996 17.792 15.7116 17.184C15.0236 16.576 14.6796 15.616 14.6796 14.304C14.6796 13.216 14.9036 12.008 15.3516 10.68C15.7996 9.352 16.5196 8.208 17.5116 7.248C18.5036 6.272 19.7516 5.784 21.2556 5.784C23.3036 5.784 24.3276 7.064 24.3276 9.624V9.648C24.3756 9.664 24.4636 9.672 24.5916 9.672C25.1196 9.672 25.7276 9.536 26.4156 9.264C27.1036 8.976 27.7276 8.632 28.2876 8.232L28.5036 8.88C28.0396 9.376 27.4316 9.8 26.6796 10.152C25.9436 10.488 25.1356 10.728 24.2556 10.872C24.1276 12.328 23.7996 13.6 23.2716 14.688C22.7436 15.776 22.0636 16.616 21.2316 17.208C20.3996 17.8 19.4956 18.096 18.5196 18.096ZM19.4796 15.936C19.8636 15.936 20.2476 15.72 20.6316 15.288C21.0156 14.84 21.3516 14.24 21.6396 13.488C21.9276 12.72 22.1356 11.872 22.2636 10.944C21.8316 10.848 21.6156 10.512 21.6156 9.936C21.6156 9.28 21.8636 8.848 22.3596 8.64C22.3276 8.112 22.2476 7.752 22.1196 7.56C21.9916 7.352 21.7676 7.248 21.4476 7.248C20.9196 7.248 20.4076 7.632 19.9116 8.4C19.4156 9.168 19.0156 10.088 18.7116 11.16C18.4076 12.232 18.2556 13.176 18.2556 13.992C18.2556 14.76 18.3436 15.28 18.5196 15.552C18.6956 15.808 19.0156 15.936 19.4796 15.936ZM29.0665 18.096C27.8825 18.096 26.9465 17.792 26.2585 17.184C25.5705 16.576 25.2265 15.616 25.2265 14.304C25.2265 13.216 25.4505 12.008 25.8985 10.68C26.3465 9.352 27.0665 8.208 28.0585 7.248C29.0505 6.272 30.2985 5.784 31.8025 5.784C33.8505 5.784 34.8745 7.064 34.8745 9.624V9.648C34.9225 9.664 35.0105 9.672 35.1385 9.672C35.6665 9.672 36.2745 9.536 36.9625 9.264C37.6505 8.976 38.2745 8.632 38.8345 8.232L39.0505 8.88C38.5865 9.376 37.9785 9.8 37.2265 10.152C36.4905 10.488 35.6825 10.728 34.8025 10.872C34.6745 12.328 34.3465 13.6 33.8185 14.688C33.2905 15.776 32.6105 16.616 31.7785 17.208C30.9465 17.8 30.0425 18.096 29.0665 18.096ZM30.0265 15.936C30.4105 15.936 30.7945 15.72 31.1785 15.288C31.5625 14.84 31.8985 14.24 32.1865 13.488C32.4745 12.72 32.6825 11.872 32.8105 10.944C32.3785 10.848 32.1625 10.512 32.1625 9.936C32.1625 9.28 32.4105 8.848 32.9065 8.64C32.8745 8.112 32.7945 7.752 32.6665 7.56C32.5385 7.352 32.3145 7.248 31.9945 7.248C31.4665 7.248 30.9545 7.632 30.4585 8.4C29.9625 9.168 29.5625 10.088 29.2585 11.16C28.9545 12.232 28.8025 13.176 28.8025 13.992C28.8025 14.76 28.8905 15.28 29.0665 15.552C29.2425 15.808 29.5625 15.936 30.0265 15.936ZM38.9894 18.144C38.0774 18.144 37.3174 17.832 36.7094 17.208C36.1014 16.584 35.7974 15.608 35.7974 14.28C35.7974 13.096 36.0294 11.856 36.4934 10.56C36.9734 9.248 37.6774 8.144 38.6054 7.248C39.5494 6.336 40.6694 5.88 41.9654 5.88C42.6214 5.88 43.1094 5.992 43.4294 6.216C43.7494 6.44 43.9094 6.736 43.9094 7.104V7.2L45.0854 1.68L48.6374 1.2L45.8774 14.16C45.8134 14.4 45.7814 14.656 45.7814 14.928C45.7814 15.248 45.8534 15.48 45.9974 15.624C46.1574 15.752 46.4134 15.816 46.7654 15.816C47.2134 15.816 47.5974 15.624 47.9174 15.24C48.2534 14.856 48.5174 14.344 48.7094 13.704H49.7174C48.7414 16.568 47.1334 18 44.8934 18C44.2374 18 43.7014 17.824 43.2854 17.472C42.8854 17.12 42.6374 16.608 42.5414 15.936C42.1254 16.576 41.6214 17.104 41.0294 17.52C40.4534 17.936 39.7734 18.144 38.9894 18.144ZM40.5494 15.816C40.9334 15.816 41.3174 15.64 41.7014 15.288C42.1014 14.936 42.3734 14.448 42.5174 13.824V13.704L43.6934 8.208C43.5494 7.648 43.2214 7.368 42.7094 7.368C42.0694 7.368 41.4934 7.744 40.9814 8.496C40.4694 9.232 40.0694 10.128 39.7814 11.184C39.4934 12.224 39.3494 13.144 39.3494 13.944C39.3494 14.744 39.4614 15.256 39.6854 15.48C39.9254 15.704 40.2134 15.816 40.5494 15.816ZM52.7268 4.704C52.1988 4.704 51.7508 4.52 51.3828 4.152C51.0148 3.784 50.8308 3.336 50.8308 2.808C50.8308 2.28 51.0148 1.832 51.3828 1.464C51.7508 1.08 52.1988 0.887999 52.7268 0.887999C53.2548 0.887999 53.7028 1.08 54.0708 1.464C54.4548 1.832 54.6468 2.28 54.6468 2.808C54.6468 3.336 54.4548 3.784 54.0708 4.152C53.7028 4.52 53.2548 4.704 52.7268 4.704ZM51.0948 18.144C50.3268 18.144 49.7028 17.904 49.2228 17.424C48.7588 16.944 48.5267 16.224 48.5267 15.264C48.5267 14.864 48.5907 14.344 48.7188 13.704L50.3508 6H53.8068L52.0788 14.16C52.0148 14.4 51.9828 14.656 51.9828 14.928C51.9828 15.248 52.0548 15.48 52.1988 15.624C52.3588 15.752 52.6148 15.816 52.9668 15.816C53.4308 15.816 53.8628 15.624 54.2628 15.24C54.6628 14.84 54.9508 14.328 55.1268 13.704H56.1348C55.5428 15.432 54.7828 16.608 53.8548 17.232C52.9268 17.84 52.0068 18.144 51.0948 18.144ZM58.5492 18.144C57.3652 18.144 56.4452 17.84 55.7892 17.232C55.1332 16.608 54.8052 15.64 54.8052 14.328C54.8052 13.224 55.0212 12.008 55.4532 10.68C55.8852 9.352 56.5892 8.208 57.5652 7.248C58.5412 6.272 59.7812 5.784 61.2852 5.784C63.0452 5.784 63.9252 6.552 63.9252 8.088C63.9252 8.984 63.6692 9.808 63.1572 10.56C62.6452 11.312 61.9652 11.92 61.1172 12.384C60.2692 12.832 59.3652 13.088 58.4052 13.152C58.3732 13.632 58.3572 13.952 58.3572 14.112C58.3572 14.896 58.4932 15.432 58.7652 15.72C59.0372 15.992 59.4772 16.128 60.0852 16.128C60.9492 16.128 61.6852 15.928 62.2932 15.528C62.9172 15.128 63.5972 14.52 64.3332 13.704H65.1492C63.3732 16.664 61.1732 18.144 58.5492 18.144ZM58.5972 12C59.1892 11.968 59.7492 11.76 60.2772 11.376C60.8212 10.992 61.2532 10.504 61.5732 9.912C61.9092 9.32 62.0772 8.696 62.0772 8.04C62.0772 7.384 61.8772 7.056 61.4772 7.056C60.9012 7.056 60.3332 7.56 59.7732 8.568C59.2292 9.576 58.8372 10.72 58.5972 12ZM66.7041 18.144C65.9361 18.144 65.3121 17.904 64.8321 17.424C64.3681 16.944 64.1361 16.224 64.1361 15.264C64.1361 14.864 64.2001 14.344 64.3281 13.704L66.8961 1.68L70.4481 1.2L67.6881 14.16C67.6241 14.4 67.5921 14.656 67.5921 14.928C67.5921 15.248 67.6641 15.48 67.8081 15.624C67.9681 15.752 68.2241 15.816 68.5761 15.816C69.0401 15.816 69.4721 15.624 69.8721 15.24C70.2721 14.84 70.5601 14.328 70.7361 13.704H71.7441C71.1521 15.432 70.3921 16.608 69.4641 17.232C68.5361 17.84 67.6161 18.144 66.7041 18.144ZM73.6066 18.144C72.6946 18.144 71.9346 17.832 71.3266 17.208C70.7186 16.584 70.4146 15.608 70.4146 14.28C70.4146 13.096 70.6466 11.856 71.1106 10.56C71.5906 9.248 72.2946 8.144 73.2226 7.248C74.1666 6.336 75.2866 5.88 76.5826 5.88C77.2386 5.88 77.7266 5.992 78.0466 6.216C78.3666 6.44 78.5266 6.736 78.5266 7.104V7.272L78.7906 6H82.2466L80.5186 14.16C80.4546 14.4 80.4226 14.656 80.4226 14.928C80.4226 15.616 80.7506 15.96 81.4066 15.96C81.8546 15.96 82.2386 15.752 82.5586 15.336C82.8946 14.92 83.1586 14.376 83.3506 13.704H84.3586C83.7666 15.432 83.0306 16.608 82.1506 17.232C81.2866 17.84 80.4146 18.144 79.5346 18.144C78.8626 18.144 78.3186 17.96 77.9026 17.592C77.5026 17.208 77.2626 16.656 77.1826 15.936C76.7186 16.592 76.1986 17.128 75.6226 17.544C75.0626 17.944 74.3906 18.144 73.6066 18.144ZM75.1666 15.816C75.5666 15.816 75.9586 15.632 76.3426 15.264C76.7426 14.88 77.0146 14.36 77.1586 13.704L78.3106 8.28C78.3106 8.072 78.2306 7.872 78.0706 7.68C77.9106 7.472 77.6626 7.368 77.3266 7.368C76.6866 7.368 76.1106 7.744 75.5986 8.496C75.0866 9.232 74.6866 10.128 74.3986 11.184C74.1106 12.224 73.9666 13.144 73.9666 13.944C73.9666 14.744 74.0786 15.256 74.3026 15.48C74.5426 15.704 74.8306 15.816 75.1666 15.816ZM92.0234 18.144C91.0474 18.144 90.3274 17.888 89.8634 17.376C89.4154 16.848 89.1914 16.2 89.1914 15.432C89.1914 15.096 89.2314 14.72 89.3114 14.304C89.3914 13.872 89.4714 13.456 89.5514 13.056C89.6474 12.656 89.7114 12.4 89.7434 12.288C89.8714 11.728 89.9914 11.176 90.1034 10.632C90.2154 10.088 90.2714 9.648 90.2714 9.312C90.2714 8.496 89.9834 8.088 89.4074 8.088C88.9914 8.088 88.6234 8.296 88.3034 8.712C87.9834 9.112 87.7274 9.64 87.5354 10.296L85.9034 18H82.4474L84.9914 6H88.4474L88.1834 7.248C88.9834 6.352 89.9194 5.904 90.9914 5.904C91.8074 5.904 92.4554 6.128 92.9354 6.576C93.4154 7.024 93.6554 7.704 93.6554 8.616C93.6554 9.08 93.5994 9.6 93.4874 10.176C93.3754 10.736 93.2154 11.424 93.0074 12.24C92.8794 12.736 92.7594 13.224 92.6474 13.704C92.5514 14.168 92.5034 14.536 92.5034 14.808C92.5034 15.128 92.5754 15.376 92.7194 15.552C92.8634 15.728 93.1114 15.816 93.4634 15.816C93.9434 15.816 94.3274 15.648 94.6154 15.312C94.9034 14.96 95.1914 14.424 95.4794 13.704H96.4874C95.8954 15.464 95.2074 16.648 94.4234 17.256C93.6554 17.848 92.8554 18.144 92.0234 18.144ZM98.3566 18.144C97.4446 18.144 96.6846 17.832 96.0766 17.208C95.4686 16.584 95.1646 15.608 95.1646 14.28C95.1646 13.096 95.3966 11.856 95.8606 10.56C96.3406 9.248 97.0446 8.144 97.9726 7.248C98.9166 6.336 100.037 5.88 101.333 5.88C101.989 5.88 102.477 5.992 102.797 6.216C103.117 6.44 103.277 6.736 103.277 7.104V7.2L104.453 1.68L108.005 1.2L105.245 14.16C105.181 14.4 105.149 14.632 105.149 14.856C105.149 15.496 105.477 15.816 106.133 15.816C106.421 15.816 106.677 15.768 106.901 15.672C106.837 16.472 106.549 17.088 106.037 17.52C105.541 17.936 104.949 18.144 104.261 18.144C103.621 18.144 103.077 17.984 102.629 17.664C102.197 17.328 101.909 16.824 101.765 16.152C100.805 17.48 99.6686 18.144 98.3566 18.144ZM99.9166 15.816C100.269 15.816 100.621 15.664 100.973 15.36C101.341 15.056 101.613 14.632 101.789 14.088L101.885 13.704L103.061 8.208C102.917 7.648 102.589 7.368 102.077 7.368C101.437 7.368 100.861 7.744 100.349 8.496C99.8366 9.232 99.4366 10.128 99.1486 11.184C98.8606 12.224 98.7166 13.144 98.7166 13.944C98.7166 14.744 98.8286 15.256 99.0526 15.48C99.2926 15.704 99.5806 15.816 99.9166 15.816Z" fill="black"/>
<path d="M109.531 18.096C109.003 18.096 108.555 17.912 108.187 17.544C107.819 17.176 107.635 16.728 107.635 16.2C107.635 15.672 107.819 15.224 108.187 14.856C108.555 14.472 109.003 14.28 109.531 14.28C110.059 14.28 110.507 14.472 110.875 14.856C111.259 15.224 111.451 15.672 111.451 16.2C111.451 16.728 111.259 17.176 110.875 17.544C110.507 17.912 110.059 18.096 109.531 18.096Z" fill="#FF7426"/>
</g>
<defs>
<filter id="filter0_d_101_1325" x="0.215942" y="0" width="115.235" height="26.144" filterUnits="userSpaceOnUse" color-interpolation-filters="sRGB">
<feFlood flood-opacity="0" result="BackgroundImageFix"/>
<feColorMatrix in="SourceAlpha" type="matrix" values="0 0 0 0 0 0 0 0 0 0 0 0 0 0 0 0 0 0 127 0" result="hardAlpha"/>
<feOffset dy="4"/>
<feGaussianBlur stdDeviation="2"/>
<feComposite in2="hardAlpha" operator="out"/>
<feColorMatrix type="matrix" values="0 0 0 0 0 0 0 0 0 0 0 0 0 0 0 0 0 0 0.25 0"/>
<feBlend mode="normal" in2="BackgroundImageFix" result="effect1_dropShadow_101_1325"/>
<feBlend mode="normal" in="SourceGraphic" in2="effect1_dropShadow_101_1325" result="shape"/>
</filter>
</defs>
</svg>
